<svg aria-hidden="true" style="position: absolute; width: 0; height: 0; overflow: hidden;" version="1.1" xmlns="http://www.w3.org/2000/svg" xmlns:xlink="http://www.w3.org/1999/xlink">
<defs>
<symbol id="icon-footer-envelope" viewBox="0 0 32 32">
<path d="M28.445 5.333h-24.891c-0.982 0-1.777 0.796-1.777 1.777v0 17.779c0 0.982 0.796 1.777 1.777 1.777 0 0 0.001 0 0.001 0h24.888c0 0 0.001 0 0.001 0 0.982 0 1.777-0.796 1.777-1.777v0-17.779c0-0.982-0.796-1.777-1.777-1.777-0 0-0.001 0-0.001 0h0zM27.076 24.889h-22.045l6.223-6.436-1.28-1.236-6.417 6.64v-15.395l11.049 10.995c0.321 0.32 0.764 0.517 1.253 0.517s0.932-0.198 1.253-0.517l11.333-11.271v15.556l-6.543-6.543-1.253 1.253 6.427 6.436zM4.72 7.111h22.284l-11.147 11.085-11.137-11.085z"></path>
</symbol>
<symbol id="icon-footer-location" viewBox="0 0 32 32">
<path d="M25 13c0-4.971-4.029-9-9-9s-9 4.029-9 9v0c0 3.692 2.953 8.504 9 14.268 6.047-5.764 9-10.576 9-14.268zM16 30c-7.333-6.667-11-12.333-11-17 0-6.075 4.925-11 11-11s11 4.925 11 11v0c0 4.667-3.667 10.333-11 17z"></path>
<path d="M16 16c1.657 0 3-1.343 3-3s-1.343-3-3-3v0c-1.657 0-3 1.343-3 3s1.343 3 3 3v0zM16 18c-2.761 0-5-2.239-5-5s2.239-5 5-5v0c2.761 0 5 2.239 5 5s-2.239 5-5 5v0z"></path>
</symbol>
<symbol id="icon-social-instagram" viewBox="0 0 32 32">
<path d="M15.969 0.125c4.312 0 4.843 0.031 6.531 0.093 1.656 0.063 2.813 0.344 3.844 0.751 1.102 0.41 2.041 1.027 2.812 1.811l0.001 0.001c0.785 0.772 1.402 1.712 1.795 2.761l0.017 0.053c0.405 1.031 0.687 2.187 0.749 3.843 0.063 1.688 0.093 2.219 0.093 6.532 0 4.312-0.031 4.843-0.093 6.531-0.063 1.656-0.344 2.813-0.749 3.844-0.41 1.102-1.028 2.041-1.812 2.812l-0.001 0.001c-0.772 0.785-1.712 1.402-2.761 1.795l-0.053 0.017c-1.031 0.405-2.187 0.687-3.843 0.749-1.688 0.063-2.219 0.093-6.531 0.093-4.313 0-4.844-0.031-6.532-0.093-1.656-0.063-2.813-0.344-3.844-0.749-1.102-0.41-2.041-1.028-2.812-1.812l-0.001-0.001c-0.784-0.772-1.401-1.712-1.793-2.761l-0.017-0.053c-0.407-1.031-0.688-2.187-0.751-3.843-0.063-1.688-0.093-2.219-0.093-6.531 0-4.313 0.031-4.844 0.093-6.532 0.063-1.656 0.344-2.813 0.751-3.844 0.41-1.102 1.027-2.041 1.811-2.812l0.001-0.001c0.772-0.784 1.712-1.4 2.761-1.792l0.053-0.017c1.029-0.408 2.185-0.691 3.841-0.752 1.688-0.063 2.219-0.093 6.532-0.093zM15.969 2.188c-4.5 0-5.032 0.031-6.781 0.093-1.627 0.063-2.532 0.375-3.125 0.593-1.532 0.625-2.563 1.656-3.187 3.187-0.22 0.595-0.533 1.501-0.595 3.127-0.063 1.749-0.093 2.28-0.093 6.781 0 4.5 0.031 5.031 0.093 6.78 0.063 1.627 0.375 2.532 0.593 3.125 0.625 1.532 1.656 2.563 3.187 3.187 0.595 0.22 1.501 0.533 3.127 0.595 1.749 0.063 2.28 0.093 6.781 0.093 4.5 0 5.031-0.031 6.78-0.093 1.627-0.063 2.532-0.375 3.125-0.593 1.532-0.625 2.563-1.656 3.187-3.187 0.22-0.595 0.533-1.501 0.595-3.127 0.063-1.749 0.093-2.28 0.093-6.78s-0.031-5.032-0.093-6.781c-0.063-1.627-0.375-2.532-0.593-3.125-0.625-1.532-1.656-2.563-3.187-3.187-0.595-0.22-1.501-0.533-3.127-0.595-1.749-0.063-2.28-0.093-6.78-0.093zM15.969 22.312c3.502-0.003 6.34-2.841 6.343-6.342v-0c-0.002-3.502-2.84-6.341-6.342-6.344h-0c-3.503 0.002-6.342 2.841-6.344 6.344v0c0.003 3.502 2.842 6.34 6.344 6.343h0zM15.969 7.844c0.004 0 0.010 0 0.015 0 4.479 0 8.109 3.631 8.109 8.109 0 0.006 0 0.011-0 0.017v-0.001c0 0.004 0 0.010 0 0.015 0 4.479-3.631 8.109-8.109 8.109-0.005 0-0.010 0-0.015 0h0.001c-0.005 0-0.010 0-0.016 0-4.479 0-8.109-3.631-8.109-8.109 0-0.005 0-0.010 0-0.015v0.001c0-0.005-0-0.010-0-0.016 0-4.479 3.631-8.109 8.109-8.109 0.006 0 0.011 0 0.017 0h-0.001zM26.343 7.531c0 1.063-0.873 1.876-1.936 1.876s-1.876-0.813-1.876-1.876c0-1.061 0.813-1.937 1.876-1.937 1.068 0.005 1.932 0.87 1.937 1.937v0z"></path>
</symbol>
<symbol id="icon-social-tumblr" viewBox="0 0 32 32">
<path d="M16.5 1.992v6.996h7.011v3h-6.979l-0.011 8.703c0 1.619 0.084 2.657 0.255 3.117 0.267 0.727 1.237 1.656 3.037 1.656 1.397 0 3.28-0.42 4.693-1.476v4.667c-1.179 0.56-2.273 0.787-3.227 1.013-0.956 0.227-1.991 0.34-3.099 0.34-1.236 0-4.803-0.035-6.267-3.763-0.263-0.672-0.395-1.645-0.395-2.921v-11.332h-4.027l0.020-3.067c1.333 0 5.332-0.809 5.332-6.933h3.655zM16.5-0.008h-3.655c-1.105 0-2 0.895-2 2v0c0 4.577-2.551 4.933-3.333 4.933 0 0 0 0-0 0-1.101 0-1.995 0.89-2 1.99v0.001l-0.019 3.067c0 0.002-0 0.005-0 0.008 0 1.105 0.895 2.001 2 2.001h2.027v9.332c0 1.543 0.175 2.739 0.533 3.653 0.903 2.293 3.044 5.031 8.128 5.031 1.259 0 2.456-0.133 3.559-0.392l0.22-0.053c0.933-0.219 2.127-0.493 3.407-1.103 0.68-0.329 1.14-1.013 1.14-1.805v-4.667c-0.001-1.104-0.896-1.999-2-1.999-0.452 0-0.869 0.15-1.204 0.403l0.005-0.004c-1.191 0.891-2.715 1.077-3.493 1.077-0.8 0-1.099-0.291-1.164-0.368-0.033-0.156-0.128-0.743-0.128-2.405l0.007-6.704h4.981c1.105 0 2-0.895 2-2v0-3.001c0-1.105-0.895-2-2-2v0h-5.011v-4.995c0-1.105-0.895-2-2-2v0z"></path>
</symbol>
<symbol id="icon-social-twitter" viewBox="0 0 32 32">
<path d="M21.387 4.96c1.653 0 3.145 0.675 4.196 1.76 1.374-0.268 2.596-0.737 3.704-1.382l-0.056 0.030c-0.453 1.322-1.345 2.394-2.499 3.068l-0.027 0.014c1.223-0.145 2.339-0.455 3.376-0.91l-0.076 0.030c-0.79 1.133-1.74 2.090-2.831 2.862l-0.036 0.024c0.009 0.24 0.016 0.48 0.016 0.72 0 7.367-5.783 15.863-16.353 15.863-3.245 0-6.268-0.925-8.811-2.507 0.455 0.053 0.913 0.080 1.371 0.079 2.693 0 5.172-0.891 7.14-2.387-2.517-0.044-4.64-1.657-5.369-3.871 0.327 0.065 0.704 0.102 1.089 0.102 0.535 0 1.054-0.072 1.547-0.206l-0.041 0.010c-2.629-0.511-4.611-2.764-4.611-5.467v-0.073c0.753 0.414 1.646 0.669 2.595 0.698l0.009 0c-1.543-1.001-2.557-2.707-2.557-4.64 0-1.023 0.284-1.98 0.779-2.8 2.832 3.371 7.069 5.591 11.845 5.824-0.095-0.38-0.149-0.815-0.149-1.264 0-0.002 0-0.004 0-0.006v0c0-3.080 2.573-5.576 5.748-5.576zM30.005 7.573v0zM21.387 2.96c-3.927 0-7.18 2.868-7.68 6.575-3.213-0.645-6.136-2.347-8.236-4.841-0.369-0.437-0.918-0.712-1.53-0.712-0.723 0-1.356 0.383-1.708 0.958l-0.005 0.009c-0.67 1.093-1.066 2.417-1.066 3.833 0 0.934 0.172 1.828 0.487 2.651l-0.017-0.051c-0.328 0.364-0.516 0.84-0.516 1.341v0.072c0 1.959 0.775 3.776 2.060 5.139-0.073 0.344-0.057 0.703 0.056 1.047 0.459 1.365 1.254 2.514 2.288 3.39l0.011 0.009c-0.647 0.15-1.391 0.236-2.155 0.236-0.405 0-0.803-0.024-1.195-0.071l0.047 0.005c-0.072-0.009-0.155-0.014-0.239-0.014-1.105 0-2 0.895-2 2 0 0.714 0.374 1.341 0.938 1.695l0.008 0.005c2.796 1.762 6.197 2.808 9.842 2.808 0.009 0 0.017 0 0.026-0h-0.001c11.375 0 18.217-8.905 18.351-17.604 0.933-0.773 1.759-1.667 2.452-2.661 0.252-0.331 0.403-0.75 0.403-1.205 0-0.677-0.336-1.275-0.85-1.637l-0.006-0.004c0.051-0.168 0.080-0.36 0.080-0.56 0-1.105-0.895-2-2-2-0.368 0-0.713 0.099-1.009 0.273l0.009-0.005c-0.606 0.356-1.306 0.663-2.044 0.883l-0.068 0.017c-1.302-0.985-2.948-1.577-4.732-1.579h-0z"></path>
</symbol>
<symbol id="icon-social-youtube" viewBox="0 0 32 32">
<path d="M29.399 5.928c-0.867-0.624-3.284-1.453-13.407-1.453-10.849 0-12.459 0.952-12.975 1.264-2.751 1.651-3.011 8.963-3.035 10.445 0.033 1.959 0.349 8.472 3.032 10.084 0.516 0.311 2.116 1.257 12.977 1.257 10.129 0 12.543-0.827 13.407-1.447 2.343-1.685 2.612-7.491 2.619-9.92-0.007-1.955-0.212-8.496-2.62-10.231zM28.229 24.456c-0.347 0.251-2.349 1.069-12.237 1.069-9.56 0-11.567-0.743-11.947-0.971-0.964-0.579-1.983-3.653-2.063-8.376 0.080-4.713 1.112-8.153 2.065-8.725 0.38-0.229 2.393-0.977 11.944-0.977 9.88 0 11.887 0.824 12.237 1.076 0.857 0.616 1.773 3.864 1.787 8.613-0.013 4.823-0.936 7.679-1.787 8.291zM22.513 15.213l-8.999-5.521c-0.147-0.090-0.325-0.143-0.515-0.143-0.551 0-0.998 0.446-1 0.997v11.045c0 0.552 0.448 0.999 1 0.999 0.191 0 0.369-0.053 0.52-0.146l-0.004 0.003 8.997-5.523c0.292-0.178 0.484-0.495 0.484-0.857s-0.192-0.679-0.48-0.854l-0.004-0.002zM13.999 19.821v-7.501l6.063 3.751-6.063 3.752z"></path>
</symbol>
    <symbol id="icon-menu" viewBox="0 0 32 32">
      <path d="M26.733 14.667H5.266c-.7 0-1.267.567-1.267 1.267v.133c0 .7.567 1.267 1.267 1.267h21.467c.7 0 1.267-.567 1.267-1.267v-.133c0-.7-.567-1.267-1.267-1.267zM26.733 21.333H5.266c-.7 0-1.267.567-1.267 1.267v.133c0 .7.567 1.267 1.267 1.267h21.467c.7 0 1.267-.567 1.267-1.267V22.6c0-.7-.567-1.267-1.267-1.267zM26.733 8H5.266c-.7 0-1.267.567-1.267 1.267V9.4c0 .7.567 1.267 1.267 1.267h21.467c.7 0 1.267-.567 1.267-1.267v-.133C28 8.567 27.433 8 26.733 8z"/>
    </symbol>
<symbol id="icon-cross" viewBox="0 0 32 32">
<path d="M16 14.115l6.6-6.6 1.885 1.885-6.6 6.6 6.6 6.6-1.885 1.885-6.6-6.6-6.6 6.6-1.885-1.885 6.6-6.6-6.6-6.6 1.885-1.885 6.6 6.6z"></path>
</symbol>

</defs>
</svg>
